<svg width="20" height="20" viewBox="0 0 20 20" fill="none" xmlns="http://www.w3.org/2000/svg">
<path d="M6.04472 15C5.77918 15 5.51363 14.9022 5.30398 14.6926C4.89867 14.2875 4.89867 13.6168 5.30398 13.2117L13.2145 5.30388C13.6198 4.89871 14.2907 4.89871 14.696 5.30388C15.1013 5.70905 15.1013 6.37967 14.696 6.78484L6.78546 14.6926C6.5898 14.9022 6.31027 15 6.04472 15Z" fill="white"/>
<path d="M13.9553 15C13.6897 15 13.4242 14.9022 13.2145 14.6926L5.30398 6.78484C4.89867 6.37967 4.89867 5.70905 5.30398 5.30388C5.70929 4.89871 6.38015 4.89871 6.78546 5.30388L14.696 13.2117C15.1013 13.6168 15.1013 14.2875 14.696 14.6926C14.4864 14.9022 14.2208 15 13.9553 15Z" fill="white"/>
</svg>
