<svg width="48" height="48" viewBox="0 0 48 48" fill="none" xmlns="http://www.w3.org/2000/svg">
<g clip-path="url(#clip0_157_284)">
<path d="M48 0H0V48H48V0Z" fill="#EC608F"/>
<path opacity="0.7" d="M22.7244 22.8673C25.0917 20.525 24.0587 15.6424 20.4169 11.9616C16.7752 8.28078 11.9039 7.19567 9.53651 9.53792C7.16914 11.8802 8.2022 16.7628 11.8439 20.4436C15.4857 24.1244 20.357 25.2095 22.7244 22.8673Z" fill="url(#paint0_linear_157_284)"/>
<path opacity="0.7" d="M25.2756 22.8673C22.9083 20.525 23.9413 15.6424 27.583 11.9616C31.2248 8.28078 36.0961 7.19567 38.4635 9.53792C40.8309 11.8802 39.7978 16.7628 36.1561 20.4436C32.5143 24.1244 27.643 25.2095 25.2756 22.8673Z" fill="url(#paint1_linear_157_284)"/>
<path opacity="0.7" d="M19.7606 27.8425C23.298 25.0594 24.9049 21.2008 23.3497 19.2241C21.7944 17.2473 17.666 17.901 14.1287 20.6841C10.5913 23.4672 8.9844 27.3258 10.5396 29.3025C12.0949 31.2793 16.2232 30.6256 19.7606 27.8425Z" fill="url(#paint2_linear_157_284)"/>
<path opacity="0.7" d="M28.2396 27.8426C24.7022 25.0595 23.0953 21.2009 24.6506 19.2241C26.2058 17.2474 30.3342 17.9011 33.8716 20.6842C37.409 23.4672 39.0158 27.3259 37.4606 29.3026C35.9054 31.2793 31.777 30.6257 28.2396 27.8426Z" fill="url(#paint3_linear_157_284)"/>
<path opacity="0.7" d="M24.0672 13.5453C24.9641 13.5453 25.6911 12.8182 25.6911 11.9214C25.6911 11.0245 24.9641 10.2975 24.0672 10.2975C23.1704 10.2975 22.4434 11.0245 22.4434 11.9214C22.4434 12.8182 23.1704 13.5453 24.0672 13.5453Z" fill="url(#paint4_linear_157_284)"/>
<path d="M13.9885 36.884H15.0385V37.5075H13.9885V40.5H13.1223V37.5075H12.5645V37.14L13.1223 36.9497V36.6544C13.1223 36.1906 13.2338 35.8362 13.457 35.5912C13.6844 35.3419 14.0257 35.2172 14.4807 35.2172C14.6382 35.2172 14.8285 35.2346 15.0516 35.2697L14.9795 35.8931C14.8351 35.8712 14.7104 35.8603 14.6054 35.8603C14.391 35.8603 14.2335 35.9281 14.1329 36.0637C14.0367 36.1993 13.9885 36.4006 13.9885 36.6675V36.884ZM17.2163 39.9619C17.4263 39.9619 17.6188 39.9203 17.7938 39.8372C17.9732 39.7541 18.1569 39.6337 18.345 39.4762L18.6075 40.0209C18.3975 40.2134 18.181 40.3578 17.9578 40.454C17.7391 40.5503 17.4897 40.5984 17.2097 40.5984C16.8073 40.5984 16.4704 40.5153 16.1991 40.349C15.9279 40.1784 15.7244 39.9509 15.5888 39.6665C15.4575 39.3778 15.3919 39.054 15.3919 38.6953C15.3919 38.3278 15.4597 38.0019 15.5953 37.7175C15.731 37.4287 15.9344 37.2012 16.2057 37.035C16.4769 36.8687 16.8116 36.7856 17.2097 36.7856C17.6604 36.7856 18.0125 36.9125 18.2663 37.1662C18.5244 37.4156 18.6557 37.7678 18.66 38.2228C18.66 38.3672 18.636 38.529 18.5878 38.7084H16.245C16.2494 39.1109 16.3303 39.4215 16.4878 39.6403C16.6453 39.8546 16.8882 39.9619 17.2163 39.9619ZM17.1703 37.3762C16.9385 37.3762 16.7503 37.4441 16.606 37.5797C16.4616 37.7109 16.361 37.8925 16.3041 38.1244H17.8135V38.0456C17.8135 37.8312 17.7522 37.6672 17.6297 37.5534C17.5116 37.4353 17.3585 37.3762 17.1703 37.3762ZM23.7127 36.7856C24.1415 36.7856 24.4368 36.9015 24.5987 37.1334C24.7606 37.3609 24.8415 37.6912 24.8415 38.1244V40.5H23.9818V38.2228C23.9818 37.934 23.9424 37.7306 23.8637 37.6125C23.7893 37.4944 23.6515 37.4353 23.4502 37.4353C23.1965 37.4353 22.9143 37.5512 22.6037 37.7831L22.5905 37.7503C22.6037 37.8684 22.6102 37.9931 22.6102 38.1244V40.5H21.7505V38.2228C21.7505 37.934 21.7112 37.7306 21.6324 37.6125C21.5581 37.4944 21.4203 37.4353 21.219 37.4353C20.9609 37.4353 20.6831 37.5491 20.3855 37.7765V40.5H19.5193V36.884H20.169L20.274 37.2187C20.6984 36.93 21.1009 36.7856 21.4815 36.7856C21.7309 36.7856 21.9321 36.8272 22.0852 36.9103C22.2427 36.989 22.3631 37.105 22.4462 37.2581C22.8968 36.9431 23.319 36.7856 23.7127 36.7856ZM30.1471 36.7856C30.5758 36.7856 30.8712 36.9015 31.033 37.1334C31.1949 37.3609 31.2758 37.6912 31.2758 38.1244V40.5H30.4161V38.2228C30.4161 37.934 30.3768 37.7306 30.298 37.6125C30.2236 37.4944 30.0858 37.4353 29.8846 37.4353C29.6308 37.4353 29.3487 37.5512 29.038 37.7831L29.0249 37.7503C29.038 37.8684 29.0446 37.9931 29.0446 38.1244V40.5H28.1849V38.2228C28.1849 37.934 28.1455 37.7306 28.0668 37.6125C27.9924 37.4944 27.8546 37.4353 27.6533 37.4353C27.3952 37.4353 27.1174 37.5491 26.8199 37.7765V40.5H25.9536V36.884H26.6033L26.7083 37.2187C27.1327 36.93 27.5352 36.7856 27.9158 36.7856C28.1652 36.7856 28.3664 36.8272 28.5196 36.9103C28.6771 36.989 28.7974 37.105 28.8805 37.2581C29.3311 36.9431 29.7533 36.7856 30.1471 36.7856ZM35.6102 36.884L34.0614 40.9856C33.9126 41.3968 33.7136 41.6921 33.4642 41.8715C33.2192 42.0553 32.9195 42.1472 32.5652 42.1472C32.3114 42.1472 32.0927 42.1121 31.9089 42.0422L31.9811 41.3925C32.1736 41.4537 32.3398 41.4844 32.4799 41.4844C32.6986 41.4844 32.8823 41.4253 33.0311 41.3072C33.1842 41.189 33.322 40.9878 33.4445 40.7034L31.968 36.884H32.8539L33.812 39.6272L34.7374 36.884H35.6102Z" fill="white"/>
</g>
<defs>
<linearGradient id="paint0_linear_157_284" x1="16.0728" y1="14.6695" x2="13.6193" y2="22.9099" gradientUnits="userSpaceOnUse">
<stop offset="0.189578" stop-color="#FFF7F7"/>
<stop offset="1" stop-color="#D9AAAA"/>
</linearGradient>
<linearGradient id="paint1_linear_157_284" x1="27.7345" y1="12.7918" x2="35.9789" y2="23.6593" gradientUnits="userSpaceOnUse">
<stop offset="0.189578" stop-color="#FFF7F7"/>
<stop offset="1" stop-color="#D9AAAA"/>
</linearGradient>
<linearGradient id="paint2_linear_157_284" x1="17.7069" y1="22.9649" x2="20.4541" y2="30.1441" gradientUnits="userSpaceOnUse">
<stop offset="0.189578" stop-color="#FFF7F7"/>
<stop offset="1" stop-color="#D9AAAA"/>
</linearGradient>
<linearGradient id="paint3_linear_157_284" x1="30.2933" y1="22.965" x2="27.8443" y2="30.4435" gradientUnits="userSpaceOnUse">
<stop offset="0.189578" stop-color="#FFF7F7"/>
<stop offset="1" stop-color="#D9AAAA"/>
</linearGradient>
<linearGradient id="paint4_linear_157_284" x1="24.3466" y1="11.7256" x2="25.0721" y2="14.2664" gradientUnits="userSpaceOnUse">
<stop offset="0.189578" stop-color="#FFF7F7"/>
<stop offset="1" stop-color="#D9AAAA"/>
</linearGradient>
<clipPath id="clip0_157_284">
<rect width="48" height="48" rx="16" fill="white"/>
</clipPath>
</defs>
</svg>
