<svg width="20" height="20" viewBox="0 0 20 20" fill="none" xmlns="http://www.w3.org/2000/svg">
<path fill-rule="evenodd" clip-rule="evenodd" d="M17.292 5.83333C17.292 6.17851 17.0122 6.45833 16.667 6.45833L3.33366 6.45833C2.98848 6.45833 2.70866 6.17851 2.70866 5.83333C2.70866 5.48816 2.98848 5.20833 3.33366 5.20833L16.667 5.20833C17.0122 5.20833 17.292 5.48816 17.292 5.83333Z" fill="white"/>
<path fill-rule="evenodd" clip-rule="evenodd" d="M17.292 10C17.292 10.3452 17.0122 10.625 16.667 10.625L3.33366 10.625C2.98848 10.625 2.70866 10.3452 2.70866 10C2.70866 9.65482 2.98848 9.375 3.33366 9.375L16.667 9.375C17.0122 9.375 17.292 9.65482 17.292 10Z" fill="white"/>
<path fill-rule="evenodd" clip-rule="evenodd" d="M17.292 14.1667C17.292 14.5118 17.0122 14.7917 16.667 14.7917L3.33366 14.7917C2.98848 14.7917 2.70866 14.5118 2.70866 14.1667C2.70866 13.8215 2.98848 13.5417 3.33366 13.5417L16.667 13.5417C17.0122 13.5417 17.292 13.8215 17.292 14.1667Z" fill="white"/>
</svg>
