<svg width="33" height="32" viewBox="0 0 33 32" fill="none" xmlns="http://www.w3.org/2000/svg">
<path d="M32.5 0V32H0.5V0H32.5Z" fill="white" fill-opacity="0.01"/>
<path d="M22.5003 10H22.5029M20.5003 16C20.5003 18.2092 18.7095 20 16.5003 20C14.2912 20 12.5003 18.2092 12.5003 16C12.5003 13.7909 14.2912 12 16.5003 12C18.7095 12 20.5003 13.7909 20.5003 16ZM16.5003 27.3334V27.3334C21.5118 27.3334 24.0175 27.3334 25.6904 25.9296C25.958 25.7051 26.2054 25.4577 26.4299 25.1901C27.8337 23.5172 27.8337 21.0115 27.8337 16V16C27.8337 10.9886 27.8337 8.48286 26.4299 6.80996C26.2054 6.54239 25.958 6.29494 25.6904 6.07042C24.0175 4.66669 21.5118 4.66669 16.5003 4.66669V4.66669C11.4889 4.66669 8.98317 4.66669 7.31027 6.07042C7.0427 6.29494 6.79524 6.54239 6.57073 6.80996C5.16699 8.48286 5.16699 10.9886 5.16699 16V16C5.16699 21.0115 5.16699 23.5172 6.57073 25.1901C6.79524 25.4577 7.0427 25.7051 7.31027 25.9296C8.98317 27.3334 11.4889 27.3334 16.5003 27.3334Z" stroke="black" stroke-width="1.5" stroke-linecap="round" stroke-linejoin="round"/>
</svg>
