<svg width="33" height="32" viewBox="0 0 33 32" fill="none" xmlns="http://www.w3.org/2000/svg">
<path d="M32.5 0V32H0.5V0H32.5Z" fill="white" fill-opacity="0.01"/>
<path d="M20.5 15.3333L14.5 21.3333M14.496 22.4578L19.4308 25.8674C21.7553 27.4735 22.9176 28.2766 23.9288 27.8501C24.9401 27.4235 25.1761 26.0307 25.6483 23.2449L27.4554 12.583C27.9909 9.42363 28.2586 7.84393 27.3345 7.10879C26.4103 6.37366 24.9313 6.98985 21.9733 8.22224L9.6397 13.3608C5.28987 15.173 3.11496 16.0791 3.19238 17.491C3.2698 18.9029 5.53076 19.5658 10.0527 20.8915L13.0605 21.7734C13.4461 21.8864 13.6389 21.943 13.8195 22.0291C14.0001 22.1152 14.1654 22.2294 14.496 22.4578Z" stroke="black" stroke-width="1.5" stroke-linecap="round" stroke-linejoin="round"/>
</svg>
